<svg xmlns="http://www.w3.org/2000/svg" fill-rule="evenodd" viewBox="0 0 100 100">
    <path d="M72.598 10.79a1.5 1.5 0 1 0-3 0v36.382h-8.583v-21.23a1.5 1.5 0 0 0-3 0v21.23h-8.182l-.024-6.078a1.5 1.5 0 1 0-3 .011l.024 6.067h-8.099V33.52a1.5 1.5 0 0 0-3 0v13.65h-8.588v-28.8a1.5 1.5 0 1 0-3 0v28.802h-8.142V33.52a1.5 1.5 0 0 0-3 0v13.65H6.925a1.5 1.5 0 1 0 0 3h6.079v13.65a1.5 1.5 0 1 0 3 0V50.17h8.142v28.802a1.5 1.5 0 1 0 3 0v-28.8h8.588v13.65a1.5 1.5 0 1 0 3 0v-13.65h8.11l.024 6.085a1.5 1.5 0 1 0 3-.012l-.024-6.073h8.171v28.8a1.5 1.5 0 1 0 3 0v-28.8h8.583v36.38a1.5 1.5 0 1 0 3 0v-36.38h8.586v12.382a1.5 1.5 0 0 0 3 0V50.172h6.078a1.5 1.5 0 0 0 0-3h-6.078V33.52a1.5 1.5 0 0 0-3 0v13.65h-8.586V10.79Z"/>
</svg>
