<svg xmlns="http://www.w3.org/2000/svg" fill-rule="evenodd" viewBox="0 0 100 100">
    <path d="m24.177 30.288 13.46-3.594a1.5 1.5 0 0 0 1.113-1.449v-7.486a1.498 1.498 0 0 0-1.886-1.449l-14.573 3.88a1.5 1.5 0 0 0-1.114 1.45v28.27a7.98 7.98 0 0 0-5.021-1.775c-4.424 0-8.022 3.599-8.022 8.021 0 4.424 3.599 8.022 8.022 8.022s8.021-3.599 8.021-8.022l-.001-.019V30.288zm0-7.496 11.573-3.081v4.382l-11.573 3.089v-4.39zm-8.021 38.387a5.027 5.027 0 0 1-5.022-5.022 5.027 5.027 0 0 1 5.022-5.021 5.027 5.027 0 0 1 5.021 5.012v.016a5.027 5.027 0 0 1-5.021 5.015zm71.236-35.61a1.5 1.5 0 0 0-1.903-1.444L44.545 35.521a1.499 1.499 0 0 0-1.098 1.445v33.97a9.149 9.149 0 0 0-6.196-2.421c-5.07 0-9.195 4.125-9.195 9.195 0 5.069 4.125 9.194 9.195 9.194 5.059 0 9.176-4.108 9.193-9.163l.003-.03V46.724l37.944-10.063v22.786a9.149 9.149 0 0 0-6.196-2.421c-5.071 0-9.196 4.125-9.196 9.196s4.125 9.196 9.196 9.196c5.062 0 9.181-4.112 9.194-9.173l.002-.021V25.569zM37.251 83.905c-3.416 0-6.195-2.778-6.195-6.194s2.779-6.195 6.195-6.195 6.195 2.779 6.195 6.195-2.779 6.194-6.195 6.194zm9.196-40.284v-5.515l37.944-10.562v6.014L46.447 43.621zm31.748 28.797c-3.417 0-6.196-2.779-6.196-6.196s2.779-6.196 6.196-6.196c3.416 0 6.195 2.779 6.195 6.196s-2.779 6.196-6.195 6.196z"/>
</svg>
