<?xml version="1.0" encoding="UTF-8" standalone="no"?> <svg xmlns="http://www.w3.org/2000/svg" xmlns:xlink="http://www.w3.org/1999/xlink" width="713px" height="559px" viewBox="0 0 713 559"> <!-- Generator: Sketch 49.1 (51147) - http://www.bohemiancoding.com/sketch --> <title>Group 10</title> <desc>Created with Sketch.</desc> <defs></defs> <g id="Page-1" stroke="none" stroke-width="1" fill="none" fill-rule="evenodd"> <g id="Group-10" transform="translate(-16.000000, -13.000000)"> <g id="Group-9"> <path d="M74.5990764,282.878717 C91.9324097,253.638163 100.599076,228.58024 100.599076,207.704947 C100.599076,186.829654 91.9324097,162.403514 74.5990764,134.426526 C57.265743,163.09724 48.5990764,187.523381 48.5990764,207.704947 C48.5990764,227.886513 57.265743,252.944437 74.5990764,282.878717 Z" id="Oval" fill="#FFFFFF" transform="translate(74.599076, 208.652622) rotate(-52.000000) translate(-74.599076, -208.652622) "></path> <path d="M199.52293,278.51628 C216.856263,249.275726 225.52293,224.217803 225.52293,203.34251 C225.52293,182.467217 216.856263,158.041077 199.52293,130.064089 C182.189596,158.734803 173.52293,183.160944 173.52293,203.34251 C173.52293,223.524076 182.189596,248.582 199.52293,278.51628 Z" id="Oval-Copy" fill="#FFFFFF" transform="translate(199.522930, 204.290185) rotate(48.000000) translate(-199.522930, -204.290185) "></path> <path d="M150.274617,152.161519 C167.607951,122.920965 176.274617,97.8630417 176.274617,76.987749 C176.274617,56.1124563 167.607951,31.6863161 150.274617,3.70932836 C132.941284,32.3800424 124.274617,56.8061827 124.274617,76.987749 C124.274617,97.1693154 132.941284,122.227239 150.274617,152.161519 Z" id="Oval-Copy" fill="#FFFFFF" transform="translate(150.274617, 77.935424) rotate(29.000000) translate(-150.274617, -77.935424) "></path> <path d="M194.059406,593.26561 C219.595701,550.187029 232.363848,513.2705 232.363848,482.516021 C232.363848,451.761543 219.595701,415.775787 194.059406,374.558752 C168.523112,416.797817 155.754964,452.783574 155.754964,482.516021 C155.754964,512.248469 168.523112,549.164999 194.059406,593.26561 Z" id="Oval" fill="#FFFFFF" transform="translate(194.059406, 483.912181) rotate(-100.000000) translate(-194.059406, -483.912181) "></path> <path d="M304.635843,457.232745 C320.126377,431.100911 327.871644,408.707029 327.871644,390.051101 C327.871644,371.395172 320.126377,349.565905 304.635843,324.563301 C289.145309,350.185878 281.400042,372.015145 281.400042,390.051101 C281.400042,408.087057 289.145309,430.480938 304.635843,457.232745 Z" id="Oval-Copy" fill="#FFFFFF"></path> <path d="M124.235468,461.864601 C145.39217,426.174196 155.970521,395.589023 155.970521,370.10908 C155.970521,344.629137 145.39217,314.815104 124.235468,280.666982 C103.078766,315.661852 92.5004156,345.475884 92.5004156,370.10908 C92.5004156,394.742275 103.078766,425.327449 124.235468,461.864601 Z" id="Oval" fill="#FFFFFF" transform="translate(124.235468, 371.265792) rotate(-85.000000) translate(-124.235468, -371.265792) "></path> <path d="M244.73529,374.218418 C262.068623,344.977864 270.73529,319.919941 270.73529,299.044648 C270.73529,278.169356 262.068623,253.743215 244.73529,225.766228 C227.401957,254.436942 218.73529,278.863082 218.73529,299.044648 C218.73529,319.226215 227.401957,344.284138 244.73529,374.218418 Z" id="Oval-Copy" fill="#FFFFFF" transform="translate(244.735290, 299.992323) rotate(15.000000) translate(-244.735290, -299.992323) "></path> <path d="M422.924138,140 C435.776783,249.017338 333.472562,392.17031 116.011475,569.458915" id="Path-2-Copy" stroke="#FFFFFF" stroke-width="5" transform="translate(270.005738, 354.729457) scale(-1, 1) translate(-270.005738, -354.729457) "></path> </g> <g id="Group-9-Copy" transform="translate(533.000000, 285.000000) scale(-1, 1) translate(-533.000000, -285.000000) translate(321.000000, 0.000000)"> <path d="M74.5990764,282.878717 C91.9324097,253.638163 100.599076,228.58024 100.599076,207.704947 C100.599076,186.829654 91.9324097,162.403514 74.5990764,134.426526 C57.265743,163.09724 48.5990764,187.523381 48.5990764,207.704947 C48.5990764,227.886513 57.265743,252.944437 74.5990764,282.878717 Z" id="Oval" fill="#FFFFFF" transform="translate(74.599076, 208.652622) rotate(-52.000000) translate(-74.599076, -208.652622) "></path> <path d="M199.52293,278.51628 C216.856263,249.275726 225.52293,224.217803 225.52293,203.34251 C225.52293,182.467217 216.856263,158.041077 199.52293,130.064089 C182.189596,158.734803 173.52293,183.160944 173.52293,203.34251 C173.52293,223.524076 182.189596,248.582 199.52293,278.51628 Z" id="Oval-Copy" fill="#FFFFFF" transform="translate(199.522930, 204.290185) rotate(48.000000) translate(-199.522930, -204.290185) "></path> <path d="M150.274617,152.161519 C167.607951,122.920965 176.274617,97.8630417 176.274617,76.987749 C176.274617,56.1124563 167.607951,31.6863161 150.274617,3.70932836 C132.941284,32.3800424 124.274617,56.8061827 124.274617,76.987749 C124.274617,97.1693154 132.941284,122.227239 150.274617,152.161519 Z" id="Oval-Copy" fill="#FFFFFF" transform="translate(150.274617, 77.935424) rotate(29.000000) translate(-150.274617, -77.935424) "></path> <path d="M194.059406,593.26561 C219.595701,550.187029 232.363848,513.2705 232.363848,482.516021 C232.363848,451.761543 219.595701,415.775787 194.059406,374.558752 C168.523112,416.797817 155.754964,452.783574 155.754964,482.516021 C155.754964,512.248469 168.523112,549.164999 194.059406,593.26561 Z" id="Oval" fill="#FFFFFF" transform="translate(194.059406, 483.912181) rotate(-100.000000) translate(-194.059406, -483.912181) "></path> <path d="M304.635843,457.232745 C320.126377,431.100911 327.871644,408.707029 327.871644,390.051101 C327.871644,371.395172 320.126377,349.565905 304.635843,324.563301 C289.145309,350.185878 281.400042,372.015145 281.400042,390.051101 C281.400042,408.087057 289.145309,430.480938 304.635843,457.232745 Z" id="Oval-Copy" fill="#FFFFFF"></path> <path d="M124.235468,461.864601 C145.39217,426.174196 155.970521,395.589023 155.970521,370.10908 C155.970521,344.629137 145.39217,314.815104 124.235468,280.666982 C103.078766,315.661852 92.5004156,345.475884 92.5004156,370.10908 C92.5004156,394.742275 103.078766,425.327449 124.235468,461.864601 Z" id="Oval" fill="#FFFFFF" transform="translate(124.235468, 371.265792) rotate(-85.000000) translate(-124.235468, -371.265792) "></path> <path d="M244.73529,374.218418 C262.068623,344.977864 270.73529,319.919941 270.73529,299.044648 C270.73529,278.169356 262.068623,253.743215 244.73529,225.766228 C227.401957,254.436942 218.73529,278.863082 218.73529,299.044648 C218.73529,319.226215 227.401957,344.284138 244.73529,374.218418 Z" id="Oval-Copy" fill="#FFFFFF" transform="translate(244.735290, 299.992323) rotate(15.000000) translate(-244.735290, -299.992323) "></path> <path d="M422.924138,140 C435.776783,249.017338 333.472562,392.17031 116.011475,569.458915" id="Path-2-Copy" stroke="#FFFFFF" stroke-width="5" transform="translate(270.005738, 354.729457) scale(-1, 1) translate(-270.005738, -354.729457) "></path> </g> </g> </g> </svg> 