<svg xmlns="http://www.w3.org/2000/svg" fill-rule="evenodd" viewBox="0 0 100 100">
    <path d="M82.045 15.035a1.5 1.5 0 0 1 1.5-1.5h9.412a1.5 1.5 0 0 1 1.5 1.5v9.412a1.5 1.5 0 0 1-1.5 1.5h-9.412a1.5 1.5 0 0 1-1.5-1.5v-9.412Zm3 1.5v6.412h6.412v-6.412h-6.412ZM5.543 15.081a1.5 1.5 0 0 1 1.5-1.5h9.412a1.5 1.5 0 0 1 1.5 1.5v9.412a1.5 1.5 0 0 1-1.5 1.5H7.043a1.5 1.5 0 0 1-1.5-1.5v-9.412Zm3 1.5v6.412h6.412v-6.412H8.543Zm18.695.075a1.5 1.5 0 0 0-1.5 1.5v24.998a1.5 1.5 0 0 0 1.5 1.5H71.84a1.5 1.5 0 0 0 1.5-1.5V18.156a1.5 1.5 0 0 0-1.5-1.5H27.238Zm1.5 24.998V19.656H70.34v21.998H28.738Zm-1.5 10.949a1.5 1.5 0 0 0-1.5 1.5v24.998a1.5 1.5 0 0 0 1.5 1.5H71.84a1.5 1.5 0 0 0 1.5-1.5V54.103a1.5 1.5 0 0 0-1.5-1.5H27.238Zm1.5 24.998V55.603H70.34v21.998H28.738ZM7.043 32.405a1.5 1.5 0 0 0-1.5 1.5v9.412a1.5 1.5 0 0 0 1.5 1.5h9.412a1.5 1.5 0 0 0 1.5-1.5v-9.412a1.5 1.5 0 0 0-1.5-1.5H7.043Zm1.5 9.412v-6.412h6.412v6.412H8.543Zm-3 10.911a1.5 1.5 0 0 1 1.5-1.5h9.412a1.5 1.5 0 0 1 1.5 1.5v9.411a1.5 1.5 0 0 1-1.5 1.5H7.043a1.5 1.5 0 0 1-1.5-1.5v-9.411Zm3 1.5v6.411h6.412v-6.411H8.543Zm-1.5 15.819a1.5 1.5 0 0 0-1.5 1.5v9.419a1.5 1.5 0 0 0 1.5 1.5h9.412a1.5 1.5 0 0 0 1.5-1.5v-9.42a1.5 1.5 0 0 0-1.5-1.5H7.043Zm1.5 9.419v-6.42h6.412v6.42H8.543Zm75.002-47.108a1.5 1.5 0 0 0-1.5 1.5v9.412a1.5 1.5 0 0 0 1.5 1.5h9.412a1.5 1.5 0 0 0 1.5-1.5v-9.412a1.5 1.5 0 0 0-1.5-1.5h-9.412Zm1.5 9.412v-6.412h6.412v6.412h-6.412Zm-3 10.911a1.5 1.5 0 0 1 1.5-1.5h9.412a1.5 1.5 0 0 1 1.5 1.5v9.411a1.5 1.5 0 0 1-1.5 1.5h-9.412a1.5 1.5 0 0 1-1.5-1.5v-9.41Zm3 1.5v6.411h6.412v-6.41h-6.412Zm-1.5 15.82a1.5 1.5 0 0 0-1.5 1.5v9.418a1.5 1.5 0 0 0 1.5 1.5h9.412a1.5 1.5 0 0 0 1.5-1.5v-9.418a1.5 1.5 0 0 0-1.5-1.5h-9.412Zm1.5 9.418v-6.418h6.412v6.418h-6.412Z"/>
</svg>
